<svg width="20" height="20" viewBox="0 0 20 20" fill="none" xmlns="http://www.w3.org/2000/svg">
<path d="M18.5633 2.63654C18.5033 2.54141 18.4201 2.46301 18.3216 2.40866C18.2231 2.35431 18.1125 2.32577 18 2.3257H1.99933C1.86492 2.32558 1.73361 2.36608 1.62263 2.44191C1.51165 2.51773 1.42618 2.62532 1.37743 2.75058C1.32868 2.87583 1.31893 3.0129 1.34945 3.1438C1.37997 3.27469 1.44935 3.39331 1.54848 3.48408L5.05612 6.69837L1.50931 10.5402C1.4213 10.6354 1.36297 10.7542 1.34145 10.8821C1.31994 11.01 1.33618 11.1413 1.38818 11.2601C1.44019 11.3789 1.5257 11.4799 1.63425 11.5508C1.74279 11.6218 1.86966 11.6595 1.99933 11.6594H13.1348L10.7313 16.7063C10.6912 16.7856 10.6672 16.8721 10.661 16.9608C10.6548 17.0495 10.6663 17.1386 10.695 17.2228C10.7237 17.3069 10.769 17.3845 10.8281 17.4509C10.8872 17.5173 10.959 17.5712 11.0393 17.6095C11.1196 17.6477 11.2067 17.6695 11.2955 17.6736C11.3843 17.6777 11.4731 17.664 11.5565 17.6332C11.6399 17.6025 11.7164 17.5554 11.7813 17.4946C11.8463 17.4339 11.8984 17.3608 11.9347 17.2796L18.6017 3.27907C18.65 3.17744 18.6719 3.06522 18.6652 2.95288C18.6585 2.84053 18.6234 2.7317 18.5633 2.63654ZM13.769 10.326H3.51855L6.48617 7.11172C6.54579 7.04725 6.59207 6.97163 6.62238 6.88922C6.65269 6.80681 6.66642 6.71922 6.66278 6.63148C6.65914 6.54375 6.6382 6.4576 6.60117 6.37798C6.56415 6.29836 6.51175 6.22683 6.44701 6.16752L3.71356 3.65909H16.9441L13.769 10.326Z" fill="white"/>
</svg>
