<svg width="20" height="20" viewBox="0 0 20 20" fill="none" xmlns="http://www.w3.org/2000/svg">
<path d="M7.77709 1.10826V2.77567C9.01814 2.77321 10.2474 3.01642 11.394 3.49129C12.5406 3.96615 13.5819 4.66327 14.4578 5.54246C15.3364 6.41883 16.0332 7.46019 16.508 8.60671C16.9828 9.75322 17.2264 10.9823 17.2246 12.2232H18.892C18.892 6.08381 13.9154 1.10715 7.77598 1.10715L7.77709 1.10826Z" fill="white"/>
<path d="M7.77706 4.4431V6.11051C9.41002 6.11051 10.9451 6.74635 12.1001 7.90131C13.2551 9.05627 13.8909 10.5914 13.8909 12.2243H15.5583C15.5583 10.1606 14.7385 8.18144 13.2792 6.72217C11.82 5.26291 9.84078 4.4431 7.77706 4.4431ZM9.44447 7.77792L8.33287 8.88953L4.44224 10.0011L1.10742 17.2266L1.54762 17.6668L5.59164 13.6228C5.52829 13.3864 5.5447 13.1357 5.63833 12.9096C5.73196 12.6835 5.89758 12.4947 6.1095 12.3723C6.32142 12.2499 6.5678 12.2009 6.81042 12.2329C7.05304 12.2648 7.27834 12.3759 7.45137 12.5489C7.62441 12.722 7.73551 12.9473 7.76745 13.1899C7.79939 13.4325 7.75037 13.6789 7.62801 13.8908C7.50564 14.1027 7.31677 14.2683 7.09068 14.362C6.86459 14.4556 6.61392 14.472 6.37755 14.4087L2.33352 18.4527L2.77372 18.8929L9.99917 15.5581L11.1108 11.6674L12.2224 10.5558L9.44336 7.77681L9.44447 7.77792Z" fill="white"/>
</svg>
