<svg width="20" height="20" viewBox="0 0 20 20" fill="none" xmlns="http://www.w3.org/2000/svg">
<path d="M16.9604 8.83985H11.1598V7.67973H16.9604V8.83985ZM14.6402 12.3202H11.1598V11.1601H14.6402V12.3202ZM19.2807 3.03925V16.9607H0.71875V3.03925H19.2807ZM18.1206 4.19937H1.87887V15.8006H18.1206V4.19937ZM6.51936 11.1601C6.19912 11.1601 5.90002 11.2205 5.62208 11.3414C5.34413 11.4622 5.0964 11.6284 4.87887 11.8399C4.66135 12.0513 4.49519 12.296 4.38038 12.574C4.26558 12.8519 4.20516 13.1541 4.19911 13.4803H3.03899C3.03899 13.1661 3.08129 12.861 3.16588 12.5649C3.25047 12.2689 3.3683 11.9879 3.51936 11.722C3.67041 11.4562 3.85772 11.2145 4.08129 10.997C4.30485 10.7794 4.55561 10.5921 4.83356 10.435C4.63416 10.2235 4.48008 9.97883 4.37132 9.70088C4.26256 9.42293 4.20516 9.13593 4.19911 8.83985C4.19911 8.51961 4.25954 8.22052 4.38038 7.94257C4.50123 7.66463 4.66739 7.41689 4.87887 7.19937C5.09035 6.98185 5.33507 6.81568 5.61301 6.70088C5.89096 6.58608 6.19307 6.52565 6.51936 6.51961C6.8396 6.51961 7.13869 6.58003 7.41664 6.70088C7.69458 6.82172 7.94232 6.98789 8.15984 7.19937C8.37736 7.41085 8.54353 7.65556 8.65833 7.93351C8.77314 8.21145 8.83356 8.51357 8.8396 8.83985C8.8396 9.13593 8.78522 9.42293 8.67646 9.70088C8.5677 9.97883 8.4106 10.2235 8.20516 10.435C8.4831 10.5921 8.73084 10.7794 8.94836 10.997C9.16588 11.2145 9.3532 11.4531 9.51029 11.713C9.66739 11.9728 9.78824 12.2538 9.87283 12.5559C9.95743 12.858 9.99972 13.1661 9.99972 13.4803H8.8396C8.8396 13.1601 8.77918 12.861 8.65833 12.5831C8.53749 12.3051 8.37132 12.0574 8.15984 11.8399C7.94836 11.6223 7.70365 11.4562 7.4257 11.3414C7.14776 11.2266 6.84564 11.1661 6.51936 11.1601ZM5.35924 8.83985C5.35924 9.003 5.38945 9.15405 5.44987 9.29303C5.51029 9.432 5.59186 9.55284 5.69458 9.65556C5.7973 9.75828 5.92117 9.84287 6.06618 9.90934C6.2112 9.97581 6.36226 10.006 6.51936 9.99997C6.6825 9.99997 6.83356 9.96976 6.97253 9.90934C7.1115 9.84892 7.23235 9.76735 7.33507 9.66463C7.43779 9.56191 7.52238 9.43804 7.58884 9.29303C7.65531 9.14801 7.68552 8.99695 7.67948 8.83985C7.67948 8.67671 7.64927 8.52565 7.58884 8.38668C7.52842 8.24771 7.44685 8.12686 7.34413 8.02414C7.24141 7.92142 7.11754 7.83683 6.97253 7.77037C6.82751 7.7039 6.67646 7.67369 6.51936 7.67973C6.35622 7.67973 6.20516 7.70994 6.06618 7.77037C5.92721 7.83079 5.80637 7.91236 5.70365 8.01508C5.60093 8.1178 5.51634 8.24167 5.44987 8.38668C5.3834 8.5317 5.35319 8.68275 5.35924 8.83985Z" fill="white"/>
</svg>
