<svg width="20" height="20" viewBox="0 0 20 20" fill="none" xmlns="http://www.w3.org/2000/svg">
<path d="M18.7969 6.43489V11.5459C18.2603 11.238 17.6709 11.0269 17.0375 10.9125V6.43489H2.9625V15.2318H10.9589C10.9149 15.5221 10.8797 15.8124 10.8797 16.1114C10.8797 16.4105 10.9149 16.7008 10.9589 16.9911H2.9625C2.49588 16.9911 2.04838 16.8058 1.71843 16.4758C1.38849 16.1459 1.20313 15.6984 1.20312 15.2318V4.67551C1.20312 3.69906 1.98605 2.91614 2.9625 2.91614H8.24062L10 4.67551H17.0375C17.5041 4.67551 17.9516 4.86087 18.2816 5.19082C18.6115 5.52077 18.7969 5.96827 18.7969 6.43489ZM14.3984 18.7505L18.7969 16.1114L14.3984 13.4724V18.7505Z" fill="white"/>
</svg>
