<svg width="20" height="20" viewBox="0 0 20 20" fill="none" xmlns="http://www.w3.org/2000/svg">
<path d="M8.87723 10.8858C8.67878 10.8767 8.48034 10.8677 8.27287 10.8677C6.08996 10.8677 4.05138 11.4721 2.31046 12.5094C1.51668 12.9785 1.05664 13.8624 1.05664 14.7915V17.1819H9.40943C8.77231 16.2731 8.38742 15.2116 8.29394 14.1056C8.20045 12.9997 8.40171 11.8887 8.87723 10.8858Z" fill="white"/>
<path d="M8.27287 9.96568C10.2656 9.96568 11.881 8.35027 11.881 6.35757C11.881 4.36486 10.2656 2.74945 8.27287 2.74945C6.28016 2.74945 4.66476 4.36486 4.66476 6.35757C4.66476 8.35027 6.28016 9.96568 8.27287 9.96568Z" fill="white"/>
<path d="M17.9697 13.5738C17.9697 13.3753 17.9426 13.1949 17.9156 13.0055L18.9439 12.0945L18.0418 10.534L16.7339 10.976C16.4453 10.7324 16.1205 10.543 15.7597 10.4077L15.4891 9.06365H13.685L13.4144 10.4077C13.0536 10.543 12.7289 10.7324 12.4402 10.976L11.1323 10.534L10.2303 12.0945L11.2586 13.0055C11.2315 13.1949 11.2045 13.3753 11.2045 13.5738C11.2045 13.7722 11.2315 13.9526 11.2586 14.1421L10.2303 15.0531L11.1323 16.6136L12.4402 16.1716C12.7289 16.4152 13.0536 16.6046 13.4144 16.7399L13.685 18.0839H15.4891L15.7597 16.7399C16.1205 16.6046 16.4453 16.4152 16.7339 16.1716L18.0418 16.6136L18.9439 15.0531L17.9156 14.1421C17.9426 13.9526 17.9697 13.7722 17.9697 13.5738ZM14.5871 15.3779C13.5948 15.3779 12.783 14.566 12.783 13.5738C12.783 12.5816 13.5948 11.7697 14.5871 11.7697C15.5793 11.7697 16.3911 12.5816 16.3911 13.5738C16.3911 14.566 15.5793 15.3779 14.5871 15.3779Z" fill="white"/>
</svg>
