<svg width="20" height="20" viewBox="0 0 20 20" fill="none" xmlns="http://www.w3.org/2000/svg">
<path d="M1.2207 15.8526H8.53645V17.3157H1.2207V15.8526ZM1.2207 11.4631H8.53645V12.9263H1.2207V11.4631ZM17.3153 8.53684H2.68385C2.2958 8.53684 1.92364 8.38269 1.64925 8.1083C1.37486 7.8339 1.2207 7.46174 1.2207 7.07369V2.68425C1.2207 2.2962 1.37486 1.92404 1.64925 1.64965C1.92364 1.37525 2.2958 1.2211 2.68385 1.2211H17.3153C17.7034 1.2211 18.0755 1.37525 18.3499 1.64965C18.6243 1.92404 18.7785 2.2962 18.7785 2.68425V7.07369C18.7785 7.46174 18.6243 7.8339 18.3499 8.1083C18.0755 8.38269 17.7034 8.53684 17.3153 8.53684ZM2.68385 2.68425V7.07369H17.3153V2.68425H2.68385ZM17.3153 18.7789H12.9259C12.5378 18.7789 12.1657 18.6247 11.8913 18.3503C11.6169 18.0759 11.4627 17.7038 11.4627 17.3157V12.9263C11.4627 12.5382 11.6169 12.1661 11.8913 11.8917C12.1657 11.6173 12.5378 11.4631 12.9259 11.4631H17.3153C17.7034 11.4631 18.0755 11.6173 18.3499 11.8917C18.6243 12.1661 18.7785 12.5382 18.7785 12.9263V17.3157C18.7785 17.7038 18.6243 18.0759 18.3499 18.3503C18.0755 18.6247 17.7034 18.7789 17.3153 18.7789ZM12.9259 12.9263V17.3157H17.3153V12.9263H12.9259Z" fill="white"/>
</svg>
