<svg width="20" height="20" viewBox="0 0 20 20" fill="none" xmlns="http://www.w3.org/2000/svg">
<g filter="url(#filter0_d_552_2757)">
<path d="M17.7347 15.6133C17.3136 14.616 16.7026 13.71 15.9356 12.9459C15.1709 12.1797 14.2651 11.5687 13.2682 11.1468C13.2593 11.1424 13.2503 11.1401 13.2414 11.1357C14.632 10.1312 15.5361 8.49504 15.5361 6.64906C15.5361 3.59102 13.0584 1.11334 10.0003 1.11334C6.9423 1.11334 4.46462 3.59102 4.46462 6.64906C4.46462 8.49504 5.36864 10.1312 6.75926 11.1379C6.75034 11.1424 6.74141 11.1446 6.73248 11.1491C5.73248 11.5709 4.83516 12.1758 4.06507 12.9482C3.29879 13.7128 2.68784 14.6186 2.26596 15.6156C1.8515 16.5916 1.62797 17.638 1.60748 18.6982C1.60688 18.722 1.61106 18.7457 1.61977 18.7679C1.62847 18.7901 1.64153 18.8103 1.65818 18.8273C1.67482 18.8444 1.6947 18.8579 1.71667 18.8672C1.73863 18.8764 1.76222 18.8812 1.78605 18.8812H3.12534C3.22355 18.8812 3.30167 18.8031 3.30391 18.7071C3.34855 16.9839 4.04051 15.37 5.26373 14.1468C6.52935 12.8812 8.21016 12.1848 10.0003 12.1848C11.7905 12.1848 13.4713 12.8812 14.7369 14.1468C15.9602 15.37 16.6521 16.9839 16.6968 18.7071C16.699 18.8053 16.7771 18.8812 16.8753 18.8812H18.2146C18.2385 18.8812 18.262 18.8764 18.284 18.8672C18.306 18.8579 18.3259 18.8444 18.3425 18.8273C18.3591 18.8103 18.3722 18.7901 18.3809 18.7679C18.3896 18.7457 18.3938 18.722 18.3932 18.6982C18.3709 17.6312 18.1499 16.5933 17.7347 15.6133ZM10.0003 10.4883C8.97578 10.4883 8.0115 10.0888 7.28605 9.36334C6.5606 8.6379 6.16105 7.67361 6.16105 6.64906C6.16105 5.6245 6.5606 4.66022 7.28605 3.93477C8.0115 3.20932 8.97578 2.80977 10.0003 2.80977C11.0249 2.80977 11.9892 3.20932 12.7146 3.93477C13.4401 4.66022 13.8396 5.6245 13.8396 6.64906C13.8396 7.67361 13.4401 8.6379 12.7146 9.36334C11.9892 10.0888 11.0249 10.4883 10.0003 10.4883Z" fill="white"/>
</g>
<defs>
<filter id="filter0_d_552_2757" x="-4" y="0" width="28" height="28" filterUnits="userSpaceOnUse" color-interpolation-filters="sRGB">
<feFlood flood-opacity="0" result="BackgroundImageFix"/>
<feColorMatrix in="SourceAlpha" type="matrix" values="0 0 0 0 0 0 0 0 0 0 0 0 0 0 0 0 0 0 127 0" result="hardAlpha"/>
<feOffset dy="4"/>
<feGaussianBlur stdDeviation="2"/>
<feComposite in2="hardAlpha" operator="out"/>
<feColorMatrix type="matrix" values="0 0 0 0 0 0 0 0 0 0 0 0 0 0 0 0 0 0 0.25 0"/>
<feBlend mode="normal" in2="BackgroundImageFix" result="effect1_dropShadow_552_2757"/>
<feBlend mode="normal" in="SourceGraphic" in2="effect1_dropShadow_552_2757" result="shape"/>
</filter>
</defs>
</svg>
